<svg xmlns="http://www.w3.org/2000/svg" viewBox="0 0 192 192"><defs><radialGradient id="g" cx="64%" cy="34%" r="86%"><stop offset="0" stop-color="#252d69"/><stop offset=".52" stop-color="#151b48"/><stop offset="1" stop-color="#090d25"/></radialGradient></defs><rect width="192" height="192" rx="30" fill="url(#g)"/><g fill="#fff" opacity=".55"><circle cx="24" cy="28" r="1"/><circle cx="43" cy="47" r=".8"/><circle cx="69" cy="24" r=".9"/><circle cx="115" cy="38" r=".7"/><circle cx="147" cy="23" r="1"/><circle cx="165" cy="56" r=".8"/><circle cx="31" cy="93" r=".7"/><circle cx="153" cy="98" r="1"/><circle cx="22" cy="148" r=".8"/><circle cx="58" cy="163" r=".7"/><circle cx="129" cy="151" r=".9"/><circle cx="166" cy="136" r=".7"/></g><g fill="#fff8ad"><path d="M46 67h48v25H70v34H46z"/><path d="M101 67c23 0 42 11 51 29-9 18-28 29-51 29v-24c12 0 22-2 29-5-7-3-17-5-29-5z"/><ellipse cx="94" cy="96" rx="15" ry="11"/></g></svg>